# xmcd
#
# Track frame offsets: 
#        150
#        14380
#        30067
#        48482
#        66755
#        81640
#        97080
#        116377
#        133247
#        150500
#
# Disc length: 2192 seconds
#
# Revision: 2
# Processed by: cddbd v1.5.2PL0 Copyright (c) Steve Scherf et al.
# Submitted via: ExactAudioCopy v0.99pb4
#
DISCID=7c088e0a
DTITLE=Steve Warner - Greatest Hits
DYEAR=1987
DGENRE=Country
TTITLE0=What I didn't Do
TTITLE1=Heart Trouble
TTITLE2=Some Fools Never Learn
TTITLE3=You Can Dream of Me
TTITLE4=Life's Highway
TTITLE5=That's How You Know When Love's Right
TTITLE6=Starting over again
TTITLE7=Small Town Girl
TTITLE8=The Weekend
TTITLE9=Lynda
EXTD=
EXTT0=
EXTT1=
EXTT2=
EXTT3=
EXTT4=
EXTT5=
EXTT6=
EXTT7=
EXTT8=
EXTT9=
PLAYORDER=
